<svg width="1200" height="900" xmlns="http://www.w.org/2000/svg" font-family="Arial, sans-serif">
  <rect width="100%" height="100%" fill="#f0f2f5"/>

  <rect width="100%" height="70" fill="white"/>
  <rect y="69" width="100%" height="1" fill="#e0e0e0"/>
  <text x="100" y="45" font-size="24" fill="#1d3557" font-weight="bold">Nossa Equipe</text>

  <text x="600" y="150" font-size="36" fill="#1d3557" font-weight="bold" text-anchor="middle">Conheça Nossos Especialistas</text>
  
  <rect x="100" y="220" width="300" height="450" rx="15" ry="15" fill="white" stroke="#e0e0e0"/>
  <circle cx="250" cy="320" r="70" fill="#a8dadc"/>
  <text x="250" y="420" font-size="22" fill="#1d3557" font-weight="bold" text-anchor="middle">Ana Silva</text>
  <text x="250" y="445" font-size="16" fill="#457b9d" text-anchor="middle">Engenheira de Front-End</text>
  <rect x="100" y="590" width="300" height="80" fill="#f8f9fa" rx="15" ry="15"/>
  <circle cx="175" cy="630" r="15" fill="#e63946"/>
  <circle cx="250" cy="630" r="15" fill="#e63946"/>
  <circle cx="325" cy="630" r="15" fill="#e63946"/>

  <rect x="450" y="220" width="300" height="450" rx="15" ry="15" fill="white" stroke="#e0e0e0"/>
  <circle cx="600" cy="320" r="70" fill="#a8dadc"/>
  <text x="600" y="420" font-size="22" fill="#1d3557" font-weight="bold" text-anchor="middle">Bruno Costa</text>
  <text x="600" y="445" font-size="16" fill="#457b9d" text-anchor="middle">Engenheiro de Back-End</text>
  <rect x="450" y="590" width="300" height="80" fill="#f8f9fa" rx="15" ry="15"/>
  <circle cx="525" cy="630" r="15" fill="#e63946"/>
  <circle cx="600" cy="630" r="15" fill="#e63946"/>
  <circle cx="675" cy="630" r="15" fill="#e63946"/>

  <rect x="800" y="220" width="300" height="450" rx="15" ry="15" fill="white" stroke="#e0e0e0"/>
  <circle cx="950" cy="320" r="70" fill="#a8dadc"/>
  <text x="950" y="420" font-size="22" fill="#1d3557" font-weight="bold" text-anchor="middle">Carla Dias</text>
  <text x="950" y="445" font-size="16" fill="#457b9d" text-anchor="middle">Arquiteta de Software</text>
  <rect x="800" y="590" width="300" height="80" fill="#f8f9fa" rx="15" ry="15"/>
  <circle cx="875" cy="630" r="15" fill="#e63946"/>
  <circle cx="950" cy="630" r="15" fill="#e63946"/>
  <circle cx="1025" cy="630" r="15" fill="#e63946"/>

  <text x="600" y="850" font-size="14" fill="#6c757d" text-anchor="middle">© 2025 - A Forja do Engenheiro</text>
</svg>